<mxfile host="app.diagrams.net" modified="2023-05-19T14:29:46.227Z" agent="Mozilla/5.0 (Windows NT 10.0; Win64; x64) AppleWebKit/537.36 (KHTML, like Gecko) Chrome/113.0.0.0 Safari/537.36" etag="ghHdqIvIi0SpwRynAaWd" version="21.3.2" type="github">
  <diagram id="C5RBs43oDa-KdzZeNtuy" name="Page-1">
    <mxGraphModel dx="880" dy="484" grid="1" gridSize="10" guides="1" tooltips="1" connect="1" arrows="1" fold="1" page="1" pageScale="1" pageWidth="827" pageHeight="1169" math="0" shadow="0">
      <root>
        <mxCell id="WIyWlLk6GJQsqaUBKTNV-0" />
        <mxCell id="WIyWlLk6GJQsqaUBKTNV-1" parent="WIyWlLk6GJQsqaUBKTNV-0" />
        <mxCell id="Yz_YMTADk8fAuH2BRuFK-0" value="&lt;font style=&quot;vertical-align: inherit;&quot;&gt;&lt;font style=&quot;vertical-align: inherit;&quot;&gt;Administrador&lt;/font&gt;&lt;/font&gt;" style="whiteSpace=wrap;html=1;aspect=fixed;" vertex="1" parent="WIyWlLk6GJQsqaUBKTNV-1">
          <mxGeometry x="120" y="410" width="80" height="80" as="geometry" />
        </mxCell>
        <mxCell id="Yz_YMTADk8fAuH2BRuFK-1" value="&lt;font style=&quot;vertical-align: inherit;&quot;&gt;&lt;font style=&quot;vertical-align: inherit;&quot;&gt;Cliente&lt;/font&gt;&lt;/font&gt;" style="whiteSpace=wrap;html=1;aspect=fixed;" vertex="1" parent="WIyWlLk6GJQsqaUBKTNV-1">
          <mxGeometry x="120" y="60" width="80" height="80" as="geometry" />
        </mxCell>
        <mxCell id="Yz_YMTADk8fAuH2BRuFK-4" value="&lt;pre style=&quot;margin-top: 0px; margin-bottom: 4px; background: rgba(0, 0, 0, 0.02); border-radius: 8px; padding: 10px; box-sizing: border-box; border: 1px solid var(--cib-color-neutral-stroke); color: rgb(17, 17, 17); font-size: 16px; text-align: start;&quot;&gt;&lt;code style=&quot;font-size: 14px;&quot; class=&quot;language-uml&quot;&gt;Fazer cadastro&lt;/code&gt;&lt;/pre&gt;" style="ellipse;whiteSpace=wrap;html=1;" vertex="1" parent="WIyWlLk6GJQsqaUBKTNV-1">
          <mxGeometry x="240" y="20" width="120" height="40" as="geometry" />
        </mxCell>
        <mxCell id="Yz_YMTADk8fAuH2BRuFK-5" value="&lt;pre style=&quot;margin-top: 0px; margin-bottom: 4px; background: rgba(0, 0, 0, 0.02); border-radius: 8px; padding: 10px; box-sizing: border-box; border: 1px solid var(--cib-color-neutral-stroke); color: rgb(17, 17, 17); text-align: start;&quot;&gt;&lt;span style=&quot;font-size: 14px;&quot;&gt;&lt;font style=&quot;vertical-align: inherit;&quot;&gt;&lt;font style=&quot;vertical-align: inherit;&quot;&gt;Efetuar login&lt;/font&gt;&lt;/font&gt;&lt;/span&gt;&lt;/pre&gt;" style="ellipse;whiteSpace=wrap;html=1;" vertex="1" parent="WIyWlLk6GJQsqaUBKTNV-1">
          <mxGeometry x="397" y="60" width="120" height="40" as="geometry" />
        </mxCell>
        <mxCell id="Yz_YMTADk8fAuH2BRuFK-8" value="&lt;font style=&quot;vertical-align: inherit;&quot;&gt;&lt;font style=&quot;vertical-align: inherit;&quot;&gt;Procurar produtos&lt;/font&gt;&lt;/font&gt;" style="ellipse;whiteSpace=wrap;html=1;" vertex="1" parent="WIyWlLk6GJQsqaUBKTNV-1">
          <mxGeometry x="370" y="140" width="120" height="40" as="geometry" />
        </mxCell>
        <mxCell id="Yz_YMTADk8fAuH2BRuFK-9" value="&lt;font style=&quot;vertical-align: inherit;&quot;&gt;&lt;font style=&quot;vertical-align: inherit;&quot;&gt;Buscar produtos&lt;/font&gt;&lt;/font&gt;" style="ellipse;whiteSpace=wrap;html=1;" vertex="1" parent="WIyWlLk6GJQsqaUBKTNV-1">
          <mxGeometry x="530" y="130" width="120" height="40" as="geometry" />
        </mxCell>
        <mxCell id="Yz_YMTADk8fAuH2BRuFK-11" value="&lt;pre style=&quot;margin-top: 0px; margin-bottom: 4px; background: rgba(0, 0, 0, 0.02); border-radius: 8px; padding: 10px; box-sizing: border-box; border: 1px solid var(--cib-color-neutral-stroke); color: rgb(17, 17, 17); font-size: 16px; text-align: start;&quot;&gt;&lt;code style=&quot;font-size: 14px;&quot; class=&quot;language-uml&quot;&gt;Adicionar produto no carrinho&lt;/code&gt;&lt;/pre&gt;" style="ellipse;whiteSpace=wrap;html=1;" vertex="1" parent="WIyWlLk6GJQsqaUBKTNV-1">
          <mxGeometry x="260" y="210" width="240" height="50" as="geometry" />
        </mxCell>
        <mxCell id="Yz_YMTADk8fAuH2BRuFK-16" value="&lt;pre style=&quot;margin-top: 0px; margin-bottom: 4px; background: rgba(0, 0, 0, 0.02); border-radius: 8px; padding: 10px; box-sizing: border-box; border: 1px solid var(--cib-color-neutral-stroke); color: rgb(17, 17, 17); font-size: 16px; text-align: start;&quot;&gt;&lt;code style=&quot;font-size: 14px;&quot; class=&quot;language-uml&quot;&gt;Ir para etapa de pagamento&lt;/code&gt;&lt;/pre&gt;" style="ellipse;whiteSpace=wrap;html=1;" vertex="1" parent="WIyWlLk6GJQsqaUBKTNV-1">
          <mxGeometry x="320" y="300" width="210" height="60" as="geometry" />
        </mxCell>
        <mxCell id="Yz_YMTADk8fAuH2BRuFK-19" value="Pix" style="ellipse;whiteSpace=wrap;html=1;" vertex="1" parent="WIyWlLk6GJQsqaUBKTNV-1">
          <mxGeometry x="550" y="285" width="50" height="45" as="geometry" />
        </mxCell>
        <mxCell id="Yz_YMTADk8fAuH2BRuFK-20" value="Cartão de Crédito" style="ellipse;whiteSpace=wrap;html=1;" vertex="1" parent="WIyWlLk6GJQsqaUBKTNV-1">
          <mxGeometry x="633" y="285" width="110" height="40" as="geometry" />
        </mxCell>
        <mxCell id="Yz_YMTADk8fAuH2BRuFK-21" value="Boleto" style="ellipse;whiteSpace=wrap;html=1;" vertex="1" parent="WIyWlLk6GJQsqaUBKTNV-1">
          <mxGeometry x="777" y="285" width="50" height="50" as="geometry" />
        </mxCell>
        <mxCell id="Yz_YMTADk8fAuH2BRuFK-26" value="Cadastrar Dados" style="ellipse;whiteSpace=wrap;html=1;" vertex="1" parent="WIyWlLk6GJQsqaUBKTNV-1">
          <mxGeometry x="517" y="390" width="116" height="40" as="geometry" />
        </mxCell>
        <mxCell id="Yz_YMTADk8fAuH2BRuFK-28" value="Pagar" style="ellipse;whiteSpace=wrap;html=1;" vertex="1" parent="WIyWlLk6GJQsqaUBKTNV-1">
          <mxGeometry x="700" y="400" width="88" height="30" as="geometry" />
        </mxCell>
        <mxCell id="Yz_YMTADk8fAuH2BRuFK-29" value="Verificar Estoque" style="ellipse;whiteSpace=wrap;html=1;" vertex="1" parent="WIyWlLk6GJQsqaUBKTNV-1">
          <mxGeometry x="277" y="410" width="120" height="40" as="geometry" />
        </mxCell>
        <mxCell id="Yz_YMTADk8fAuH2BRuFK-30" value="Confirmar Pagamento" style="ellipse;whiteSpace=wrap;html=1;" vertex="1" parent="WIyWlLk6GJQsqaUBKTNV-1">
          <mxGeometry x="277" y="500" width="125" height="50" as="geometry" />
        </mxCell>
        <mxCell id="Yz_YMTADk8fAuH2BRuFK-31" value="Enviar Produto" style="ellipse;whiteSpace=wrap;html=1;" vertex="1" parent="WIyWlLk6GJQsqaUBKTNV-1">
          <mxGeometry x="440" y="585" width="120" height="40" as="geometry" />
        </mxCell>
        <mxCell id="Yz_YMTADk8fAuH2BRuFK-35" value="" style="endArrow=none;dashed=1;html=1;rounded=0;" edge="1" parent="WIyWlLk6GJQsqaUBKTNV-1">
          <mxGeometry width="50" height="50" relative="1" as="geometry">
            <mxPoint x="560" y="440" as="sourcePoint" />
            <mxPoint x="560" y="440" as="targetPoint" />
          </mxGeometry>
        </mxCell>
        <mxCell id="Yz_YMTADk8fAuH2BRuFK-48" value="include" style="endArrow=classic;html=1;rounded=0;entryX=0.558;entryY=0.075;entryDx=0;entryDy=0;entryPerimeter=0;" edge="1" parent="WIyWlLk6GJQsqaUBKTNV-1" source="Yz_YMTADk8fAuH2BRuFK-5" target="Yz_YMTADk8fAuH2BRuFK-8">
          <mxGeometry y="7" width="50" height="50" relative="1" as="geometry">
            <mxPoint x="380" y="110" as="sourcePoint" />
            <mxPoint x="440" y="135" as="targetPoint" />
            <mxPoint as="offset" />
          </mxGeometry>
        </mxCell>
        <mxCell id="Yz_YMTADk8fAuH2BRuFK-49" value="" style="endArrow=classic;html=1;rounded=0;entryX=0;entryY=1;entryDx=0;entryDy=0;exitX=1;exitY=0.5;exitDx=0;exitDy=0;" edge="1" parent="WIyWlLk6GJQsqaUBKTNV-1" source="Yz_YMTADk8fAuH2BRuFK-1" target="Yz_YMTADk8fAuH2BRuFK-4">
          <mxGeometry width="50" height="50" relative="1" as="geometry">
            <mxPoint x="510" y="290" as="sourcePoint" />
            <mxPoint x="560" y="240" as="targetPoint" />
          </mxGeometry>
        </mxCell>
        <mxCell id="Yz_YMTADk8fAuH2BRuFK-50" value="" style="endArrow=classic;startArrow=classic;html=1;rounded=0;exitX=1;exitY=0.5;exitDx=0;exitDy=0;entryX=0.042;entryY=0.75;entryDx=0;entryDy=0;entryPerimeter=0;" edge="1" parent="WIyWlLk6GJQsqaUBKTNV-1" source="Yz_YMTADk8fAuH2BRuFK-8" target="Yz_YMTADk8fAuH2BRuFK-9">
          <mxGeometry width="50" height="50" relative="1" as="geometry">
            <mxPoint x="490" y="190" as="sourcePoint" />
            <mxPoint x="540" y="140" as="targetPoint" />
          </mxGeometry>
        </mxCell>
        <mxCell id="Yz_YMTADk8fAuH2BRuFK-51" value="include" style="endArrow=classic;html=1;rounded=0;exitX=0.725;exitY=0.975;exitDx=0;exitDy=0;exitPerimeter=0;entryX=0.665;entryY=-0.017;entryDx=0;entryDy=0;entryPerimeter=0;" edge="1" parent="WIyWlLk6GJQsqaUBKTNV-1" source="Yz_YMTADk8fAuH2BRuFK-8" target="Yz_YMTADk8fAuH2BRuFK-11">
          <mxGeometry width="50" height="50" relative="1" as="geometry">
            <mxPoint x="510" y="290" as="sourcePoint" />
            <mxPoint x="560" y="240" as="targetPoint" />
          </mxGeometry>
        </mxCell>
        <mxCell id="Yz_YMTADk8fAuH2BRuFK-52" value="include" style="endArrow=classic;html=1;rounded=0;exitX=0.652;exitY=0.967;exitDx=0;exitDy=0;exitPerimeter=0;" edge="1" parent="WIyWlLk6GJQsqaUBKTNV-1" source="Yz_YMTADk8fAuH2BRuFK-11" target="Yz_YMTADk8fAuH2BRuFK-16">
          <mxGeometry width="50" height="50" relative="1" as="geometry">
            <mxPoint x="510" y="290" as="sourcePoint" />
            <mxPoint x="560" y="240" as="targetPoint" />
          </mxGeometry>
        </mxCell>
        <mxCell id="Yz_YMTADk8fAuH2BRuFK-53" value="" style="endArrow=classic;startArrow=classic;html=1;rounded=0;entryX=0;entryY=0.5;entryDx=0;entryDy=0;exitX=1;exitY=0.5;exitDx=0;exitDy=0;" edge="1" parent="WIyWlLk6GJQsqaUBKTNV-1" source="Yz_YMTADk8fAuH2BRuFK-16" target="Yz_YMTADk8fAuH2BRuFK-19">
          <mxGeometry width="50" height="50" relative="1" as="geometry">
            <mxPoint x="510" y="390" as="sourcePoint" />
            <mxPoint x="560" y="340" as="targetPoint" />
          </mxGeometry>
        </mxCell>
        <mxCell id="Yz_YMTADk8fAuH2BRuFK-54" value="" style="endArrow=classic;startArrow=classic;html=1;rounded=0;entryX=0;entryY=0.5;entryDx=0;entryDy=0;" edge="1" parent="WIyWlLk6GJQsqaUBKTNV-1" target="Yz_YMTADk8fAuH2BRuFK-20">
          <mxGeometry width="50" height="50" relative="1" as="geometry">
            <mxPoint x="600" y="308" as="sourcePoint" />
            <mxPoint x="450" y="260" as="targetPoint" />
          </mxGeometry>
        </mxCell>
        <mxCell id="Yz_YMTADk8fAuH2BRuFK-55" value="" style="endArrow=classic;startArrow=classic;html=1;rounded=0;entryX=0;entryY=0.5;entryDx=0;entryDy=0;exitX=1;exitY=0.5;exitDx=0;exitDy=0;" edge="1" parent="WIyWlLk6GJQsqaUBKTNV-1" source="Yz_YMTADk8fAuH2BRuFK-20" target="Yz_YMTADk8fAuH2BRuFK-21">
          <mxGeometry width="50" height="50" relative="1" as="geometry">
            <mxPoint x="400" y="310" as="sourcePoint" />
            <mxPoint x="450" y="260" as="targetPoint" />
          </mxGeometry>
        </mxCell>
        <mxCell id="Yz_YMTADk8fAuH2BRuFK-56" value="include" style="endArrow=classic;html=1;rounded=0;" edge="1" parent="WIyWlLk6GJQsqaUBKTNV-1" source="Yz_YMTADk8fAuH2BRuFK-16" target="Yz_YMTADk8fAuH2BRuFK-26">
          <mxGeometry width="50" height="50" relative="1" as="geometry">
            <mxPoint x="520" y="370" as="sourcePoint" />
            <mxPoint x="526" y="412" as="targetPoint" />
          </mxGeometry>
        </mxCell>
        <mxCell id="Yz_YMTADk8fAuH2BRuFK-57" value="include" style="endArrow=classic;html=1;rounded=0;entryX=0.057;entryY=0.133;entryDx=0;entryDy=0;entryPerimeter=0;" edge="1" parent="WIyWlLk6GJQsqaUBKTNV-1" source="Yz_YMTADk8fAuH2BRuFK-26" target="Yz_YMTADk8fAuH2BRuFK-28">
          <mxGeometry width="50" height="50" relative="1" as="geometry">
            <mxPoint x="560" y="440" as="sourcePoint" />
            <mxPoint x="566" y="482" as="targetPoint" />
          </mxGeometry>
        </mxCell>
        <mxCell id="Yz_YMTADk8fAuH2BRuFK-58" value="" style="endArrow=classic;startArrow=classic;html=1;rounded=0;" edge="1" parent="WIyWlLk6GJQsqaUBKTNV-1" source="Yz_YMTADk8fAuH2BRuFK-4" target="Yz_YMTADk8fAuH2BRuFK-5">
          <mxGeometry width="50" height="50" relative="1" as="geometry">
            <mxPoint x="400" y="110" as="sourcePoint" />
            <mxPoint x="450" y="60" as="targetPoint" />
          </mxGeometry>
        </mxCell>
        <mxCell id="Yz_YMTADk8fAuH2BRuFK-59" value="" style="endArrow=classic;html=1;rounded=0;exitX=1;exitY=0.25;exitDx=0;exitDy=0;entryX=0;entryY=0.5;entryDx=0;entryDy=0;" edge="1" parent="WIyWlLk6GJQsqaUBKTNV-1" source="Yz_YMTADk8fAuH2BRuFK-0" target="Yz_YMTADk8fAuH2BRuFK-29">
          <mxGeometry width="50" height="50" relative="1" as="geometry">
            <mxPoint x="400" y="510" as="sourcePoint" />
            <mxPoint x="450" y="460" as="targetPoint" />
          </mxGeometry>
        </mxCell>
        <mxCell id="Yz_YMTADk8fAuH2BRuFK-63" value="extend" style="endArrow=classic;html=1;rounded=0;exitX=0;exitY=1;exitDx=0;exitDy=0;" edge="1" parent="WIyWlLk6GJQsqaUBKTNV-1" source="Yz_YMTADk8fAuH2BRuFK-11">
          <mxGeometry width="50" height="50" relative="1" as="geometry">
            <mxPoint x="400" y="510" as="sourcePoint" />
            <mxPoint x="295" y="410" as="targetPoint" />
          </mxGeometry>
        </mxCell>
        <mxCell id="Yz_YMTADk8fAuH2BRuFK-64" value="extend" style="endArrow=classic;html=1;rounded=0;entryX=1;entryY=0.5;entryDx=0;entryDy=0;exitX=0;exitY=1;exitDx=0;exitDy=0;" edge="1" parent="WIyWlLk6GJQsqaUBKTNV-1" source="Yz_YMTADk8fAuH2BRuFK-28" target="Yz_YMTADk8fAuH2BRuFK-30">
          <mxGeometry width="50" height="50" relative="1" as="geometry">
            <mxPoint x="500" y="500" as="sourcePoint" />
            <mxPoint x="450" y="360" as="targetPoint" />
          </mxGeometry>
        </mxCell>
        <mxCell id="Yz_YMTADk8fAuH2BRuFK-65" value="extend" style="endArrow=classic;html=1;rounded=0;exitX=0.5;exitY=1;exitDx=0;exitDy=0;entryX=0.008;entryY=0.275;entryDx=0;entryDy=0;entryPerimeter=0;" edge="1" parent="WIyWlLk6GJQsqaUBKTNV-1" source="Yz_YMTADk8fAuH2BRuFK-30" target="Yz_YMTADk8fAuH2BRuFK-31">
          <mxGeometry width="50" height="50" relative="1" as="geometry">
            <mxPoint x="300" y="420" as="sourcePoint" />
            <mxPoint x="350" y="370" as="targetPoint" />
          </mxGeometry>
        </mxCell>
        <mxCell id="Yz_YMTADk8fAuH2BRuFK-66" value="" style="endArrow=classic;html=1;rounded=0;exitX=1;exitY=0.75;exitDx=0;exitDy=0;entryX=0;entryY=0.38;entryDx=0;entryDy=0;entryPerimeter=0;" edge="1" parent="WIyWlLk6GJQsqaUBKTNV-1" source="Yz_YMTADk8fAuH2BRuFK-0" target="Yz_YMTADk8fAuH2BRuFK-30">
          <mxGeometry width="50" height="50" relative="1" as="geometry">
            <mxPoint x="300" y="420" as="sourcePoint" />
            <mxPoint x="350" y="370" as="targetPoint" />
          </mxGeometry>
        </mxCell>
      </root>
    </mxGraphModel>
  </diagram>
</mxfile>
